<svg xmlns="http://www.w3.org/2000/svg" xlink="http://www.w3.org/1999/xlink" width="0" height="0" style="display:none;">
    <symbol viewBox="0 0 24 24" id="dollar">
        <path fill="none" d="M0 0h24v24H0z"/>
        <path d="M12 22C6.477 22 2 17.523 2 12S6.477 2 12 2s10 4.477 10 10-4.477 10-10 10zm0-2a8 8 0 1 0 0-16 8 8 0 0 0 0 16zm-3.5-6H14a.5.5 0 1 0 0-1h-4a2.5 2.5 0 1 1 0-5h1V6h2v2h2.5v2H10a.5.5 0 1 0 0 1h4a2.5 2.5 0 1 1 0 5h-1v2h-2v-2H8.5v-2z"/>
    </symbol>
    <symbol viewBox="0 0 24 24" id="open-source">
        <path fill="none" d="M0 0H24V24H0z"/>
        <path d="M12 2c5.523 0 10 4.477 10 10 0 4.4-2.841 8.136-6.789 9.473l-.226.074-2.904-7.55C13.15 13.95 14 13.054 14 12c0-1.105-.895-2-2-2s-2 .895-2 2c0 1.077.851 1.955 1.917 1.998l-2.903 7.549-.225-.074C4.84 20.136 2 16.4 2 12 2 6.477 6.477 2 12 2zm0 2c-4.418 0-8 3.582-8 8 0 2.92 1.564 5.475 3.901 6.872l1.48-3.849C8.534 14.29 8 13.207 8 12c0-2.21 1.79-4 4-4s4 1.79 4 4c0 1.207-.535 2.29-1.38 3.023.565 1.474 1.059 2.757 1.479 3.85C18.435 17.475 20 14.92 20 12c0-4.418-3.582-8-8-8z"/>
    </symbol>
    <symbol viewBox="0 0 24 24" id="instagram">
        <path fill="none" d="M0 0h24v24H0z"/>
        <path d="M12 9a3 3 0 1 0 0 6 3 3 0 0 0 0-6zm0-2a5 5 0 1 1 0 10 5 5 0 0 1 0-10zm6.5-.25a1.25 1.25 0 0 1-2.5 0 1.25 1.25 0 0 1 2.5 0zM12 4c-2.474 0-2.878.007-4.029.058-.784.037-1.31.142-1.798.332-.434.168-.747.369-1.08.703a2.89 2.89 0 0 0-.704 1.08c-.19.49-.295 1.015-.331 1.798C4.006 9.075 4 9.461 4 12c0 2.474.007 2.878.058 4.029.037.783.142 1.31.331 1.797.17.435.37.748.702 1.08.337.336.65.537 1.08.703.494.191 1.02.297 1.8.333C9.075 19.994 9.461 20 12 20c2.474 0 2.878-.007 4.029-.058.782-.037 1.309-.142 1.797-.331.433-.169.748-.37 1.08-.702.337-.337.538-.65.704-1.08.19-.493.296-1.02.332-1.8.052-1.104.058-1.49.058-4.029 0-2.474-.007-2.878-.058-4.029-.037-.782-.142-1.31-.332-1.798a2.911 2.911 0 0 0-.703-1.08 2.884 2.884 0 0 0-1.08-.704c-.49-.19-1.016-.295-1.798-.331C14.925 4.006 14.539 4 12 4zm0-2c2.717 0 3.056.01 4.122.06 1.065.05 1.79.217 2.428.465.66.254 1.216.598 1.772 1.153a4.908 4.908 0 0 1 1.153 1.772c.247.637.415 1.363.465 2.428.047 1.066.06 1.405.06 4.122 0 2.717-.01 3.056-.06 4.122-.05 1.065-.218 1.79-.465 2.428a4.883 4.883 0 0 1-1.153 1.772 4.915 4.915 0 0 1-1.772 1.153c-.637.247-1.363.415-2.428.465-1.066.047-1.405.06-4.122.06-2.717 0-3.056-.01-4.122-.06-1.065-.05-1.79-.218-2.428-.465a4.89 4.89 0 0 1-1.772-1.153 4.904 4.904 0 0 1-1.153-1.772c-.248-.637-.415-1.363-.465-2.428C2.013 15.056 2 14.717 2 12c0-2.717.01-3.056.06-4.122.05-1.066.217-1.79.465-2.428a4.88 4.88 0 0 1 1.153-1.772A4.897 4.897 0 0 1 5.45 2.525c.638-.248 1.362-.415 2.428-.465C8.944 2.013 9.283 2 12 2z"/>
    </symbol>
    <symbol viewBox="0 0 24 24" id="linkedin">
        <path fill="none" d="M0 0h24v24H0z"/>
        <path d="M4 3h16a1 1 0 0 1 1 1v16a1 1 0 0 1-1 1H4a1 1 0 0 1-1-1V4a1 1 0 0 1 1-1zm1 2v14h14V5H5zm2.5 4a1.5 1.5 0 1 1 0-3 1.5 1.5 0 0 1 0 3zm-1 1h2v7.5h-2V10zm5.5.43c.584-.565 1.266-.93 2-.93 2.071 0 3.5 1.679 3.5 3.75v4.25h-2v-4.25a1.75 1.75 0 0 0-3.5 0v4.25h-2V10h2v.43z"/>
    </symbol>
    <symbol viewBox="0 0 24 24" id="github">
        <path fill="none" d="M0 0h24v24H0z"/>
        <path d="M5.883 18.653c-.3-.2-.558-.455-.86-.816a50.32 50.32 0 0 1-.466-.579c-.463-.575-.755-.84-1.057-.949a1 1 0 0 1 .676-1.883c.752.27 1.261.735 1.947 1.588-.094-.117.34.427.433.539.19.227.33.365.44.438.204.137.587.196 1.15.14.023-.382.094-.753.202-1.095C5.38 15.31 3.7 13.396 3.7 9.64c0-1.24.37-2.356 1.058-3.292-.218-.894-.185-1.975.302-3.192a1 1 0 0 1 .63-.582c.081-.024.127-.035.208-.047.803-.123 1.937.17 3.415 1.096A11.731 11.731 0 0 1 12 3.315c.912 0 1.818.104 2.684.308 1.477-.933 2.613-1.226 3.422-1.096.085.013.157.03.218.05a1 1 0 0 1 .616.58c.487 1.216.52 2.297.302 3.19.691.936 1.058 2.045 1.058 3.293 0 3.757-1.674 5.665-4.642 6.392.125.415.19.879.19 1.38a300.492 300.492 0 0 1-.012 2.716 1 1 0 0 1-.019 1.958c-1.139.228-1.983-.532-1.983-1.525l.002-.446.005-.705c.005-.708.007-1.338.007-1.998 0-.697-.183-1.152-.425-1.36-.661-.57-.326-1.655.54-1.752 2.967-.333 4.337-1.482 4.337-4.66 0-.955-.312-1.744-.913-2.404a1 1 0 0 1-.19-1.045c.166-.414.237-.957.096-1.614l-.01.003c-.491.139-1.11.44-1.858.949a1 1 0 0 1-.833.135A9.626 9.626 0 0 0 12 5.315c-.89 0-1.772.119-2.592.35a1 1 0 0 1-.83-.134c-.752-.507-1.374-.807-1.868-.947-.144.653-.073 1.194.092 1.607a1 1 0 0 1-.189 1.045C6.016 7.89 5.7 8.694 5.7 9.64c0 3.172 1.371 4.328 4.322 4.66.865.097 1.201 1.177.544 1.748-.192.168-.429.732-.429 1.364v3.15c0 .986-.835 1.725-1.96 1.528a1 1 0 0 1-.04-1.962v-.99c-.91.061-1.662-.088-2.254-.485z"/>
    </symbol>
    <symbol viewBox="0 0 24 24" id="double-quotes-start">
        <path fill="none" d="M0 0h24v24H0z"/>
        <path d="M4.583 17.321C3.553 16.227 3 15 3 13.011c0-3.5 2.457-6.637 6.03-8.188l.893 1.378c-3.335 1.804-3.987 4.145-4.247 5.621.537-.278 1.24-.375 1.929-.311 1.804.167 3.226 1.648 3.226 3.489a3.5 3.5 0 0 1-3.5 3.5c-1.073 0-2.099-.49-2.748-1.179zm10 0C13.553 16.227 13 15 13 13.011c0-3.5 2.457-6.637 6.03-8.188l.893 1.378c-3.335 1.804-3.987 4.145-4.247 5.621.537-.278 1.24-.375 1.929-.311 1.804.167 3.226 1.648 3.226 3.489a3.5 3.5 0 0 1-3.5 3.5c-1.073 0-2.099-.49-2.748-1.179z"/>
    </symbol>
    <symbol viewBox="0 0 24 24" id="double-quotes-end">
        <path fill="none" d="M0 0h24v24H0z"/>
        <path d="M19.417 6.679C20.447 7.773 21 9 21 10.989c0 3.5-2.457 6.637-6.03 8.188l-.893-1.378c3.335-1.804 3.987-4.145 4.247-5.621-.537.278-1.24.375-1.929.311-1.804-.167-3.226-1.648-3.226-3.489a3.5 3.5 0 0 1 3.5-3.5c1.073 0 2.099.49 2.748 1.179zm-10 0C10.447 7.773 11 9 11 10.989c0 3.5-2.457 6.637-6.03 8.188l-.893-1.378c3.335-1.804 3.987-4.145 4.247-5.621-.537.278-1.24.375-1.929.311C4.591 12.322 3.17 10.841 3.17 9a3.5 3.5 0 0 1 3.5-3.5c1.073 0 2.099.49 2.748 1.179z"/>
    </symbol>
    <symbol viewBox="0 0 24 24" id="link">
        <path fill="none" d="M0 0h24v24H0z"/>
        <path d="M18.364 15.536L16.95 14.12l1.414-1.414a5 5 0 1 0-7.071-7.071L9.879 7.05 8.464 5.636 9.88 4.222a7 7 0 0 1 9.9 9.9l-1.415 1.414zm-2.828 2.828l-1.415 1.414a7 7 0 0 1-9.9-9.9l1.415-1.414L7.05 9.88l-1.414 1.414a5 5 0 1 0 7.071 7.071l1.414-1.414 1.415 1.414zm-.708-10.607l1.415 1.415-7.071 7.07-1.415-1.414 7.071-7.07z"/>
    </symbol>
    <symbol viewBox="0 0 24 24" id="external-link">
        <path fill="none" d="M0 0h24v24H0z"/>
        <path d="M10 6v2H5v11h11v-5h2v6a1 1 0 0 1-1 1H4a1 1 0 0 1-1-1V7a1 1 0 0 1 1-1h6zm11-3v8h-2V6.413l-7.793 7.794-1.414-1.414L17.585 5H13V3h8z"/>
    </symbol>
</svg>